<svg width="477" height="432" viewBox="0 0 477 432" fill="none" xmlns="http://www.w3.org/2000/svg">
<path d="M182.938 431C170.207 348.198 209.107 286.628 125.649 290.874C42.1917 295.12 -29.9494 222.934 14.6083 218.688C59.1661 214.442 95.944 199.58 95.944 256.904C95.944 314.228 153.233 509.555 168.085 354.568C182.938 199.58 209.814 268.227 125.649 184.01C41.4844 99.7932 178.694 -113.934 168.085 79.9774C157.476 273.889 175.865 211.611 263.566 139.425C351.267 67.2387 600.225 65.1155 400.069 124.563C199.912 184.01 235.641 104.039 208.399 218.688C200.799 250.674 194.412 280.394 190.919 303.613M190.919 303.613C181.891 363.619 192.192 380.204 250.835 280.258C332.171 141.64 421.287 111.116 374.607 184.01C327.927 256.904 198.9 111.824 190.919 303.613Z" stroke="black"/>
</svg>
